/* XPM */
static char *ICO_SNAP32_xpm[] = {
/* columns rows colors chars-per-pixel */
"32 32 29 1 ",
"  c black",
". c #00006C",
"X c #A23C2D",
"o c red",
"O c #C2281E",
"+ c #9B6565",
"@ c #956A6A",
"# c #8F7070",
"$ c #8A7575",
"% c #238E6B",
"& c #358262",
"* c #0000AA",
"= c #1452AA",
"- c #0000CE",
"; c #0C2FCE",
": c #0923DB",
"> c #0000E3",
", c #030CF3",
"< c blue",
"1 c #5D77DB",
"2 c #5555FF",
"3 c #6CB49C",
"4 c #808080",
"5 c #AABEB0",
"6 c #9393FF",
"7 c #A2CFC0",
"8 c #FFC9C9",
"9 c #FFEAEA",
"0 c gray100",
/* pixels */
"    .>.                -*.      ",
" 00006<6000000000000000<6000000 ",
" 00000<600000000000000<26000000 ",
" 000006<60000000000000<60000000 ",
" 0000006<600000000000<260000000 ",
" 0000000<600000000000<600000000 ",
" 00000006<6000000000<2600000000 ",
" 000000006<600000000<6000000000 ",
" 000000000<6%%%%%%%,26000000000 ",
" 0000000%%==377777,;=%%70000000 ",
" 00000%%3777,6  00<1777%%700000 ",
" 000%%377000..44  6600077%%70<<.",
" 00%3770000 444444 000000,:=,26.",
" 00%7000000 444444 00<<<<261=10 ",
" 0%3700000 4444@#44 <2666600%70 ",
" 0%7000000 4444oo+$ 660000007%7 ",
" 0%70000000 44444oo890000000%37 ",
" 07%7000000 444444 oo8900000%70 ",
" 00%70000000  44  <60ooo900%370 ",
" 007%%70000000  006<6008oo&3700 ",
" 00077%%700000<60006<60%%5OX000 ",
" 0000077%%%%70<6000%==%37700oo0 ",
" 00000007777%%==%%%377,10000000 ",
" 0000000000077,17777006<6000000 ",
" 0000000000000<60000000<6000000 ",
" 0000000000000<600000006<600000 ",
" 0000000000000<6000000006<60000 ",
" 0000000000000<60000000006<6000 ",
" 0000000000000<600000000006<600 ",
" 000000000000<26000000000006<60 ",
" 000000000000<600000000000006<6 ",
"             ..              .>."
};
